<?xml version="1.0" standalone="no"?>
<!DOCTYPE svg PUBLIC "-//W3C//DTD SVG 20010904//EN"
 "http://www.w3.org/TR/2001/REC-SVG-20010904/DTD/svg10.dtd">
<svg version="1.0" xmlns="http://www.w3.org/2000/svg"
 width="622.000000pt" height="622.000000pt" viewBox="0 0 622.000000 622.000000"
 preserveAspectRatio="xMidYMid meet">
<metadata>
Created by potrace 1.14, written by Peter Selinger 2001-2017
</metadata>
<g transform="translate(0.000000,622.000000) scale(0.100000,-0.100000)"
fill="#000000" stroke="none">
<path d="M5301 5194 c-51 -25 -119 -62 -150 -81 -97 -61 -191 -125 -197 -134
-8 -14 -72 -11 -107 5 -199 87 -226 92 -291 60 -28 -13 -78 -42 -111 -64 -33
-22 -69 -44 -80 -50 -11 -5 -29 -16 -40 -22 -10 -7 -46 -29 -80 -48 -33 -19
-69 -41 -80 -47 -11 -7 -67 -39 -125 -73 -58 -34 -112 -65 -120 -70 -8 -5 -41
-23 -74 -40 -32 -17 -73 -40 -92 -51 -59 -33 -64 -28 -64 55 0 88 -10 102 -70
92 -22 -3 -72 -21 -112 -40 -124 -56 -158 -69 -165 -63 -3 4 1 30 10 58 24 74
23 173 -3 199 -11 11 -23 20 -27 20 -3 0 -58 26 -122 57 -64 32 -118 58 -121
59 -5 1 -23 8 -80 32 -19 8 -73 30 -120 49 -47 19 -89 39 -94 44 -6 5 -29 9
-53 9 -32 0 -63 -11 -125 -47 -46 -25 -98 -54 -116 -64 -18 -9 -39 -23 -47
-29 -8 -7 -15 -9 -15 -5 0 5 -8 1 -17 -7 -16 -14 -101 -60 -113 -61 -3 -1 -14
-9 -24 -19 -11 -10 -28 -18 -37 -18 -10 0 -20 -4 -24 -9 -3 -6 -103 -58 -223
-116 -119 -59 -225 -111 -234 -116 -10 -5 -24 -9 -32 -9 -8 0 -16 -3 -18 -7
-2 -5 -25 -18 -53 -31 l-50 -23 -155 45 c-175 52 -279 82 -360 103 -30 8 -75
21 -99 29 -104 33 -131 19 -315 -161 -72 -72 -166 -177 -166 -187 0 -5 -7 -11
-15 -14 -8 -4 -15 -10 -15 -16 0 -5 -6 -16 -12 -23 -31 -34 -42 -50 -99 -142
-33 -54 -64 -105 -69 -113 -13 -20 -54 -105 -74 -154 -30 -73 -19 -111 72
-251 65 -99 168 -220 276 -322 50 -48 95 -93 99 -100 8 -13 2 -19 -74 -83 -66
-55 -250 -238 -304 -304 -101 -123 -205 -297 -205 -345 0 -11 -5 -21 -11 -23
-20 -7 -24 -206 -5 -270 9 -31 16 -68 16 -82 0 -14 4 -26 8 -26 4 0 26 -36 47
-80 21 -44 42 -80 46 -80 4 0 11 -10 15 -22 11 -36 154 -215 245 -308 112
-113 285 -260 308 -260 6 0 11 -4 11 -8 0 -5 10 -14 23 -20 12 -7 49 -28 82
-47 149 -89 295 -143 500 -188 96 -21 358 -21 440 -1 120 31 172 46 252 74 45
15 84 26 87 22 3 -3 6 -51 6 -107 0 -65 4 -105 12 -113 15 -15 63 -16 90 -1
25 13 140 57 188 71 19 5 55 19 80 30 25 10 54 23 65 28 63 27 213 80 227 80
9 0 19 4 23 9 3 5 27 17 54 26 58 19 106 67 141 140 13 28 35 62 50 78 29 29
146 80 163 70 5 -3 7 -2 4 4 -4 6 13 16 36 23 23 8 47 17 52 20 6 4 26 13 45
20 19 7 49 19 65 25 17 7 75 29 130 50 55 20 116 45 135 55 65 33 93 34 126 3
54 -50 130 -117 180 -158 27 -22 72 -61 99 -86 70 -64 95 -79 130 -79 43 1 65
21 208 200 89 110 127 160 127 164 0 4 8 14 18 24 17 18 75 89 98 120 17 23
36 10 64 -44 14 -27 35 -67 47 -89 11 -22 39 -76 61 -120 22 -44 51 -102 66
-129 14 -26 23 -52 20 -57 -3 -5 -1 -9 4 -9 5 0 26 -34 46 -75 58 -117 85
-116 222 10 48 44 92 79 97 77 4 -1 6 2 3 7 -3 5 1 14 9 21 12 10 15 1 17 -62
3 -71 4 -73 31 -76 23 -3 46 16 163 132 75 75 140 136 145 136 5 0 9 4 9 8 0
4 69 79 153 166 95 99 154 168 157 185 3 14 5 89 5 166 0 139 0 140 -29 178
l-28 37 72 76 c85 90 103 127 103 214 0 68 -32 154 -77 208 -39 47 -251 250
-321 309 -38 32 -84 71 -100 88 -17 16 -51 46 -75 65 -25 19 -55 44 -67 55
-12 11 -47 40 -78 65 -30 24 -55 48 -55 54 0 5 49 59 109 120 59 61 135 140
167 175 32 35 137 143 232 239 113 115 172 182 172 196 0 12 -7 40 -15 64 -15
42 -15 43 11 67 15 14 30 23 34 20 4 -3 10 5 13 16 4 13 10 18 18 13 7 -4 10
-3 6 3 -4 6 0 16 7 23 31 25 29 67 -5 138 -18 37 -41 78 -51 91 -10 13 -15 28
-11 35 3 6 3 8 -1 4 -5 -4 -34 29 -67 72 -93 123 -345 350 -389 350 -6 0 -10
4 -10 8 0 5 -10 14 -22 21 -13 6 -43 22 -68 36 -25 13 -58 25 -75 25 -16 0
-72 -21 -124 -46z"/>
<path d="M4034 5074 c-18 -8 -64 -51 -104 -95 -40 -43 -79 -79 -87 -79 -8 0
-11 -5 -8 -10 3 -6 -15 -33 -42 -61 -26 -28 -51 -57 -56 -64 -16 -29 21 -63
38 -34 4 6 14 8 23 4 9 -3 13 -3 9 1 -10 10 143 96 160 90 7 -3 12 -1 10 5 -1
5 30 27 68 47 39 21 89 50 111 65 23 14 43 24 45 22 2 -2 5 22 5 53 1 38 -1
50 -7 37 -4 -11 -8 -14 -8 -7 -1 16 -61 42 -98 42 -15 0 -42 -7 -59 -16z"/>
<path d="M3493 5005 c-33 -33 -35 -39 -30 -82 10 -90 94 -122 162 -62 31 27
35 37 35 78 -1 49 -12 71 -47 89 -42 23 -82 15 -120 -23z"/>
<path d="M1447 4842 c-19 -20 -23 -52 -7 -52 5 0 12 -11 16 -25 4 -14 8 -24
11 -21 3 2 13 -4 24 -15 23 -23 65 -19 138 12 24 11 49 19 56 19 6 0 20 9 30
20 27 30 1 48 -80 55 -37 4 -81 11 -98 16 -48 14 -72 11 -90 -9z"/>
<path d="M5952 3985 c-46 -47 -90 -85 -98 -85 -8 0 -14 -7 -14 -15 0 -13 -81
-103 -220 -244 -51 -51 -80 -93 -80 -114 0 -8 9 -22 20 -32 36 -32 67 -12 224
148 83 84 153 151 158 150 4 -2 8 3 8 10 0 8 17 29 38 48 49 46 94 98 110 129
11 20 11 29 0 50 -31 60 -48 55 -146 -45z"/>
<path d="M5878 3589 c-121 -124 -175 -186 -171 -197 6 -15 68 -74 104 -100 24
-16 67 1 155 63 36 25 67 45 69 45 6 0 24 15 96 80 45 40 58 59 65 93 11 55
12 107 2 107 -4 0 -8 9 -8 19 0 31 -56 71 -98 71 -35 0 -48 -11 -214 -181z"/>
<path d="M126 3624 c-15 -21 -20 -23 -28 -13 -5 9 -6 -1 -2 -26 13 -86 70
-120 119 -70 15 14 31 22 38 18 9 -5 8 -2 0 9 -7 8 -10 17 -7 20 11 11 -25 64
-51 76 -37 17 -48 15 -69 -14z"/>
<path d="M230 3639 c0 -5 5 -7 10 -4 6 3 10 8 10 11 0 2 -4 4 -10 4 -5 0 -10
-5 -10 -11z"/>
<path d="M250 3385 c-7 -8 -19 -15 -26 -15 -23 0 -18 -129 5 -157 23 -27 85
-63 110 -63 17 0 129 90 158 128 16 19 -3 44 -48 62 -16 7 -29 17 -29 23 0 6
-3 8 -6 4 -4 -3 -24 3 -45 13 -45 24 -102 26 -119 5z"/>
<path d="M6003 3266 c-13 -6 -23 -16 -23 -24 0 -7 -5 -21 -12 -32 -10 -15 -9
-25 2 -47 21 -39 28 -43 93 -43 44 0 57 3 57 15 0 8 4 15 9 15 16 0 18 60 2
83 -32 47 -77 59 -128 33z"/>
<path d="M55 3068 c-62 -34 -59 -124 5 -158 15 -8 30 -5 67 15 94 48 105 75
54 126 -32 31 -87 39 -126 17z"/>
<path d="M4691 1735 c-16 -14 -40 -43 -52 -63 -12 -20 -30 -44 -38 -53 -27
-28 -61 -69 -61 -74 0 -6 -14 -24 -42 -56 -10 -10 -18 -22 -18 -25 0 -4 -10
-16 -23 -28 -33 -31 -39 -52 -19 -75 16 -19 19 -19 55 -4 20 8 37 21 37 29 0
8 4 14 10 14 5 0 23 12 39 28 16 15 74 69 129 119 l99 93 -24 50 c-32 67 -53
77 -92 45z"/>
<path d="M3690 1610 c-41 -17 -81 -30 -87 -30 -7 0 -13 -4 -13 -9 0 -5 -12
-12 -27 -16 -25 -6 -112 -41 -200 -81 -17 -8 -34 -14 -37 -14 -3 0 -30 -12
-60 -26 -45 -21 -62 -37 -102 -97 -27 -40 -53 -76 -60 -82 -20 -17 -27 -54
-11 -61 14 -5 43 4 192 62 39 14 111 41 160 59 50 19 115 43 145 55 30 12 64
24 75 27 11 2 29 9 40 13 11 5 52 21 90 35 160 60 166 67 109 127 -39 41 -89
68 -121 68 -10 -1 -52 -14 -93 -30z"/>
<path d="M4802 1492 c-38 -36 -41 -64 -7 -97 25 -26 45 -27 82 -7 18 10 21 19
17 49 -5 40 -19 63 -39 63 -8 0 -15 5 -17 11 -2 6 -18 -2 -36 -19z"/>
</g>
</svg>
